<svg xmlns="http://www.w3.org/2000/svg" xml:space="preserve" viewBox="0 0 512 512">
  <path d="M213.87 319.13v20.35c0 6.8-4.1 12.93-10.37 15.55l-67.24 28.01c-14.2 5.92-23.46 22.01-23.46 37.4v81.1h286.35v-81.1c0-15.39-9.25-31.48-23.46-37.4l-67.24-28.01a16.84 16.84 0 0 1-10.36-15.55v-20.35h-84.22z" style="fill:#e03f43"/>
  <path d="M353.08 501.53v-96.01a45.78 45.78 0 0 1 9.5-27.93l-54.13-22.56a16.84 16.84 0 0 1-10.36-15.55l-.1 37.53a42.09 42.09 0 0 1-41.96 41.97 42.09 42.09 0 0 1-41.97-41.97l-.2-37.53c0 6.8-4.08 12.93-10.36 15.55l-54.13 22.56a45.78 45.78 0 0 1 9.5 27.93v96.01h194.2z" style="fill:#102f50"/>
  <path d="M350 199.18v-30.45a93.85 93.85 0 0 0-187.69 0h-.36v30.45a23.4 23.4 0 0 0 0 46.8v17.47c1.12 14.74 8.3 27.86 19.19 35.04l56.57 32.34c11.36 7.5 25.18 7.5 36.54 0l56.4-32.34c10.88-7.18 18.23-20.3 19.36-35.04v-17.47a23.4 23.4 0 1 0 0-46.8z" style="fill:#febba0"/>
  <path d="M298.09 319.13V377c0 23.08-18.98 41.97-42.06 41.97-23.08 0-42.16-18.89-42.16-41.97v-57.88" style="fill:#febba0"/>
  <path d="M473.34 352.78v-108.4a31.31 31.31 0 0 0 3.04-50.84 19.85 19.85 0 0 1-39.51 0 31.31 31.31 0 0 0 3.04 50.84v108.4a31.31 31.31 0 0 0-3.04 50.83 19.85 19.85 0 0 1 39.51 0 31.31 31.31 0 0 0-3.04-50.84z" style="fill:#c9dee4"/>
  <path d="M86.77 71.82c0 18.72-14.03 30.56-31.34 30.56S24.09 90.54 24.09 71.82c0-27.13 31.34-50.93 31.34-50.93s31.34 23.8 31.34 50.93z" style="fill:#0f8ee3"/>
  <path d="M138.84 295.71H23.28A12.82 12.82 0 0 0 10.5 308.5c0 7.03 5.76 12.79 12.78 12.79h.01a57.77 57.77 0 0 0 115.54 0h.01c7.03 0 12.78-5.76 12.78-12.79 0-7.03-5.75-12.78-12.78-12.78z" style="fill:#102f50"/>
  <path d="M490.45 68.94c0-1.62-.1-3.21-.27-4.79l11.37-15.53a58.45 58.45 0 0 0-9.83-17l-19.09 2.08a43.68 43.68 0 0 0-8.38-4.84l-7.74-17.56a58.87 58.87 0 0 0-19.65 0l-7.74 17.56a43.68 43.68 0 0 0-8.38 4.84l-19.1-2.07a58.43 58.43 0 0 0-9.82 17l11.37 15.52a44.28 44.28 0 0 0 0 9.63l-11.37 15.54a58.45 58.45 0 0 0 9.83 17l19.15-2.1a43.69 43.69 0 0 0 8.3 4.8l7.76 17.62a58.86 58.86 0 0 0 19.65 0l7.77-17.62c2.95-1.3 5.72-2.9 8.29-4.8l19.15 2.1a58.43 58.43 0 0 0 9.83-17l-11.37-15.54c.17-1.6.27-3.2.27-4.84zm-43.76 18.23a18.23 18.23 0 1 1 0-36.46 18.23 18.23 0 0 1 0 36.46z" style="fill:#e03f43"/>
  <path d="m360.45 158.23-1.62-34.41-3.39-44.05a39.37 39.37 0 0 0-30.61-35.38l-68.64-15.42h-.02L187.5 44.38a39.36 39.36 0 0 0-30.61 35.38l-3.4 44.05-1.62 34.41c-1.04 13.26 13.42 22.11 24.74 15.13a151.62 151.62 0 0 1 159.1 0c11.32 6.98 25.77-1.87 24.75-15.13zM189.43 456.61H322.9v44.93H189.43z" style="fill:#1990e0"/>
  <path d="M10.59 511.98h-.14a10.45 10.45 0 1 1 0-20.9h.14a10.45 10.45 0 1 1 0 20.9zM501.5 511.98h-.14a10.45 10.45 0 1 1 0-20.9h.14a10.45 10.45 0 1 1 0 20.9zM294.08 235.49a11.7 11.7 0 0 1-11.68-11.68 11.7 11.7 0 0 1 23.36 0 11.7 11.7 0 0 1-11.68 11.68zM217.87 235.49a11.7 11.7 0 0 1-11.68-11.68 11.7 11.7 0 0 1 23.36 0 11.7 11.7 0 0 1-11.68 11.68zM256.02 292.46a20.68 20.68 0 0 1-20.66-20.66c0-5.77 4.68-10.45 10.45-10.45h20.42c5.77 0 10.45 4.68 10.45 10.45a20.68 20.68 0 0 1-20.66 20.66zM476.38 414.06a10.44 10.44 0 0 1-10.4-9.48 9.35 9.35 0 0 0-9.36-8.52 9.35 9.35 0 0 0-9.35 8.52 10.45 10.45 0 0 1-17 7.14 41.64 41.64 0 0 1-15.44-32.43 41.55 41.55 0 0 1 14.63-31.76v-97.9a41.56 41.56 0 0 1-14.63-31.76 41.64 41.64 0 0 1 15.45-32.43 10.45 10.45 0 0 1 17 7.14 9.35 9.35 0 0 0 9.34 8.52c4.89 0 8.91-3.66 9.36-8.52a10.45 10.45 0 0 1 17-7.14 41.64 41.64 0 0 1 15.44 32.43 41.55 41.55 0 0 1-14.63 31.76v97.9a41.55 41.55 0 0 1 14.63 31.76 41.64 41.64 0 0 1-15.45 32.43 10.44 10.44 0 0 1-6.59 2.34zm-19.75-38.9c7.92 0 15.14 3 20.54 7.96a20.81 20.81 0 0 0-9.4-21.52 10.45 10.45 0 0 1-4.88-8.82v-108.4c0-3.59 1.84-6.92 4.87-8.84a20.81 20.81 0 0 0 9.41-21.51c-5.4 4.97-12.62 7.96-20.54 7.96s-15.15-3-20.55-7.96a20.81 20.81 0 0 0 9.4 21.52 10.45 10.45 0 0 1 4.88 8.82v108.4c0 3.59-1.84 6.92-4.87 8.84a20.81 20.81 0 0 0-9.4 21.51 30.22 30.22 0 0 1 20.54-7.96zM55.43 112.83c-24.22 0-41.8-17.25-41.8-41.01 0-31.94 34.03-58.15 35.48-59.25a10.45 10.45 0 0 1 12.64 0c1.45 1.1 35.47 27.3 35.47 59.25 0 23.76-17.57 41.01-41.79 41.01zm.02-78.14c-8.86 8.47-20.91 23.13-20.91 37.13 0 13.9 10.49 20.12 20.9 20.12s20.89-6.22 20.89-20.12c0-14.08-12.03-28.69-20.88-37.13zM96.58 310.8h-.14a10.45 10.45 0 1 0 0 20.9h.14a10.45 10.45 0 1 0 0-20.9zM446.69 137.93c-3.82 0-7.7-.34-11.57-.99a10.45 10.45 0 0 1-7.82-6.08l-6.23-14.14c-1-.53-1.97-1.1-2.93-1.7l-15.36 1.68c-3.5.38-6.93-1.02-9.17-3.71a68.71 68.71 0 0 1-11.59-20.04 10.45 10.45 0 0 1 1.37-9.8l9.12-12.46a51.43 51.43 0 0 1 0-3.44l-9.12-12.45a10.45 10.45 0 0 1-1.37-9.8c2.7-7.3 6.6-14.04 11.59-20.04 2.24-2.7 5.68-4.1 9.17-3.72l15.29 1.66c1-.61 2-1.2 3.03-1.75l6.2-14.07A10.45 10.45 0 0 1 435.13 1a68.8 68.8 0 0 1 23.13 0c3.46.58 6.4 2.87 7.82 6.08l6.2 14.07c1.03.55 2.04 1.14 3.04 1.75l15.28-1.66a10.45 10.45 0 0 1 9.17 3.72c4.99 6 8.88 12.74 11.59 20.03 1.22 3.3.7 6.97-1.37 9.8l-9.11 12.46a51 51 0 0 1 0 3.44l9.11 12.46a10.45 10.45 0 0 1 1.37 9.8A68.7 68.7 0 0 1 499.76 113a10.44 10.44 0 0 1-9.16 3.71l-15.37-1.67c-.96.6-1.93 1.16-2.93 1.7l-6.23 14.13a10.45 10.45 0 0 1-7.82 6.08 69.8 69.8 0 0 1-11.56.99zM444 116.95c1.8.1 3.56.1 5.35 0l5.36-12.15a10.45 10.45 0 0 1 5.35-5.35 33.3 33.3 0 0 0 6.3-3.64 10.45 10.45 0 0 1 7.33-1.97l13.2 1.44c.99-1.5 1.88-3.04 2.68-4.63l-7.83-10.7a10.45 10.45 0 0 1-1.96-7.31 33.89 33.89 0 0 0 0-7.36c-.28-2.59.42-5.2 1.96-7.3l7.83-10.7a47.8 47.8 0 0 0-2.67-4.62l-13.15 1.43c-2.6.28-5.22-.42-7.33-1.98a33.31 33.31 0 0 0-6.38-3.68 10.44 10.44 0 0 1-5.36-5.36L449.36 21c-1.8-.1-3.56-.1-5.35 0l-5.33 12.08a10.45 10.45 0 0 1-5.36 5.36 33.3 33.3 0 0 0-6.38 3.68 10.45 10.45 0 0 1-7.33 1.98l-13.15-1.43a48.01 48.01 0 0 0-2.67 4.62l7.83 10.7a10.45 10.45 0 0 1 1.96 7.3 33.81 33.81 0 0 0 0 7.36c.28 2.6-.41 5.2-1.96 7.3l-7.83 10.72a47.8 47.8 0 0 0 2.67 4.62l13.21-1.44c2.6-.28 5.21.42 7.32 1.97a33.25 33.25 0 0 0 6.3 3.64 10.45 10.45 0 0 1 5.36 5.35l5.36 12.15zm2.68-19.33c-15.82 0-28.68-12.86-28.68-28.68s12.86-28.68 28.68-28.68c15.81 0 28.67 12.87 28.67 28.68S462.5 97.62 446.7 97.62zm0-36.46a7.8 7.8 0 0 0 0 15.57 7.8 7.8 0 0 0 0-15.57z"/>
  <path d="M467.56 491.09H409.6v-70.65c0-20.36-12.3-39.7-29.89-47.04l-67.24-28.01a6.38 6.38 0 0 1-3.94-5.9V323.2l27.32-15.66c.19-.1.37-.22.56-.34 13.67-9.03 22.65-25.1 24.02-42.96.02-.27.03-.53.03-.8v-8.67a33.91 33.91 0 0 0 23.4-32.2 33.91 33.91 0 0 0-23.4-32.2v-9.67a26.59 26.59 0 0 0 10.42-23.1l-1.6-33.81c0-.26 0-.52-.03-.79l-3.39-44.05a49.56 49.56 0 0 0-38.74-44.76l-68.35-15.36c-1.6-.4-3.29-.43-4.9-.07L185.22 34.2a49.55 49.55 0 0 0-38.75 44.76l-3.4 44.06-.01.3-1.62 34.28a26.58 26.58 0 0 0 10.06 22.84v9.94c-13.57 4.41-23.4 17.18-23.4 32.2s9.83 27.79 23.4 32.2v8.68c0 .26 0 .53.03.8 1.37 17.93 10.29 34 23.85 42.95l.57.35 27.47 15.7v16.22c0 2.6-1.55 4.91-3.94 5.9l-67.24 28.02c-17.6 7.34-29.89 26.68-29.89 47.04v70.65H91.51V388.68a68.37 68.37 0 0 0 57.28-59.2 23.26 23.26 0 0 0 13.28-20.99 23.25 23.25 0 0 0-23.23-23.23H23.28A23.26 23.26 0 0 0 .06 308.5c0 9.25 5.43 17.25 13.27 20.99a68.36 68.36 0 0 0 57.29 59.2v102.4H44.38a10.45 10.45 0 1 0 0 20.9h423.18a10.45 10.45 0 1 0 0-20.9zM34.91 331.69h27.73a10.45 10.45 0 1 0 0-20.9H24.15c-.24 0-.48.03-.72.04h-.14a2.36 2.36 0 0 1-2.34-2.34 2.36 2.36 0 0 1 2.33-2.33h115.56a2.36 2.36 0 0 1 2.34 2.33 2.36 2.36 0 0 1-2.34 2.34 10.45 10.45 0 0 0-10.45 10.44 47.38 47.38 0 0 1-47.33 47.33 47.4 47.4 0 0 1-46.15-36.9zm136.21-167.22a5.65 5.65 0 0 1-6.06 0 5.7 5.7 0 0 1-2.76-5.74l.95-20c28.72-14.13 60.71-21.57 92.91-21.57s64.19 7.44 92.91 21.56l.95 20a5.7 5.7 0 0 1-2.77 5.75 5.65 5.65 0 0 1-6.04 0 161.57 161.57 0 0 0-85.05-24.1c-30.13 0-59.54 8.33-85.04 24.1zM189.8 54.58l66.35-14.91 66.39 14.91a28.77 28.77 0 0 1 22.49 25.99l2.66 34.54a232.48 232.48 0 0 0-91.53-18.85c-31.47 0-62.76 6.5-91.52 18.85l2.67-34.54a28.76 28.76 0 0 1 22.49-25.99zm-3.16 235.02c-7.98-5.4-13.28-15.29-14.24-26.57v-17.05c0-5.77-4.68-10.45-10.45-10.45-7.15 0-12.96-5.81-12.96-12.95s5.81-12.96 12.96-12.96c5.77 0 10.44-4.67 10.44-10.44v-13.3a26.73 26.73 0 0 0 9.71-3.64c45-27.81 103.13-27.81 148.13 0a26.72 26.72 0 0 0 9.33 3.57v13.36c0 5.77 4.68 10.45 10.45 10.45 7.14 0 12.95 5.81 12.95 12.96 0 7.14-5.81 12.95-12.95 12.95a10.45 10.45 0 0 0-10.45 10.45v17.05c-.95 11.05-6.44 21.17-14.42 26.57l-56.1 32.17-.55.34a22.1 22.1 0 0 1-25.02 0 9.55 9.55 0 0 0-.57-.35l-56.26-32.16zm101 45.6V377a31.6 31.6 0 0 1-31.61 31.52c-17.49 0-31.72-14.14-31.72-31.52v-41.8l7.94 4.54a43.44 43.44 0 0 0 23.73 7.14c8.2 0 16.4-2.38 23.73-7.15l7.93-4.55zM148.43 491.08h-25.18v-70.65c0-11.77 7.32-23.7 17.03-27.75l4.87-2.03a35.07 35.07 0 0 1 3.28 14.86v85.57zm164.02 0H199.88v-24.03h112.57v24.03zm30.18-85.57v85.57h-9.29V456.6c0-5.77-4.67-10.45-10.45-10.45H189.43a10.45 10.45 0 0 0-10.45 10.45v34.48h-9.66v-85.57c0-8-1.66-15.75-4.87-22.9l38.97-16.24v10.63c0 28.9 23.6 52.42 52.6 52.42 28.96 0 52.52-23.52 52.52-52.42v-10.63l38.96 16.24a55.82 55.82 0 0 0-4.87 22.9zm46.07 85.57h-25.17v-85.57c0-5.2 1.12-10.23 3.27-14.86l4.87 2.03c9.71 4.04 17.03 15.98 17.03 27.75v70.65z"/>
</svg>
