<svg xmlns="http://www.w3.org/2000/svg" xml:space="preserve" width="800" height="800" viewBox="0 0 512 512">
  <path d="M256 512a256 256 0 1 1 0-512 256 256 0 0 1 0 512z" style="fill:#6ebec5"/>
  <path d="M105.3 365.8c-.6.8-1 1.8-1 3 0 2.7 2.2 5 4.9 5.2 0 .6.1 1.2.4 1.7a43 43 0 0 0 15 31c1.4 1.6 102.7 102.7 103.9 103.8a256 256 0 0 0 282.6-234c-1-1.2-168.6-169.2-170.8-170a9 9 0 0 0-15.6-1.8h-4.4c-1-1.8-7.1-8-9.2-9a9.5 9.5 0 0 0-18.3 4v5h-12.7a9.1 9.1 0 0 0-16.5 5.3c0 3.8 2.2 7 5.5 8.4 1 2.2 21.7 23 23.7 23.9v3.1h.1a23.5 23.5 0 0 0-13.2 15.5h-13.9c-.5-.3-1.2-.4-1.8-.5a5.3 5.3 0 0 0-10.7.5v.6a43.1 43.1 0 0 0-36.5 41.2h-.2c-3 0-5.4 2.4-5.4 5.4 0 2.8 2.1 5 4.9 5.3 0 .8.3 1.5.7 2.1v116c-1.3-1.5-83.6-83.8-85.3-85.2a43 43 0 0 0-29.2-15c-.7-.5-1.5-.8-2.5-1a5.3 5.3 0 0 0-10.6.6v.1h-88A268 268 0 0 0 0 256l.2 7.3s105 101.8 105.1 102.5z" style="fill:#5eabb2"/>
  <path d="M346.3 161h-86.4a43.2 43.2 0 0 0-43.1 43v170a11 11 0 0 1-10.8 10.7h-53.4a11 11 0 0 1-10.8-10.8v-99.8a43.2 43.2 0 0 0-43.1-43H1.2C.4 239.1 0 247.5 0 256l.2 7.3h98.5a11 11 0 0 1 10.8 10.8V374a43.2 43.2 0 0 0 43 43.2H206a43.2 43.2 0 0 0 43.1-43.2V204a11 11 0 0 1 10.8-10.7h86.4A11 11 0 0 1 357 204v43.2h32.3V204a43.2 43.2 0 0 0-43.1-43z" style="fill:#fff"/>
  <path d="M373.9 247.2V205.8a27 27 0 0 0-27-27h-86.8a27 27 0 0 0-27 27v168a27 27 0 0 1-26.9 26.9h-55a27 27 0 0 1-26.9-27V273a27 27 0 0 0-27-27H.4C0 249.3 0 252.6 0 256l.2 7.3h98.5a11 11 0 0 1 10.8 10.8V374a43.2 43.2 0 0 0 43 43.2H206a43.2 43.2 0 0 0 43.1-43.2V204a11 11 0 0 1 10.8-10.7h86.4A11 11 0 0 1 357 204v43.2h16.8z" style="fill:#ceeaf2"/>
  <path d="M346.2 198.6c-3 0-5.4-2.4-5.4-5.3v-32.4a5.4 5.4 0 1 1 10.8 0v32.4c0 3-2.4 5.3-5.4 5.3z" style="fill:#fff"/>
  <path d="M346.2 155.5v43.1c3 0 5.4-2.4 5.4-5.3v-32.4c0-3-2.4-5.4-5.4-5.4z" style="fill:#ceeaf2"/>
  <path d="M258.7 198.6c-3 0-5.4-2.4-5.4-5.3v-32.4a5.4 5.4 0 1 1 10.8 0v32.4c0 3-2.4 5.3-5.4 5.3z" style="fill:#fff"/>
  <path d="M258.7 155.5v43.1c3 0 5.4-2.4 5.4-5.3v-32.4c0-3-2.4-5.4-5.4-5.4z" style="fill:#ceeaf2"/>
  <path d="M202.8 422.2c-3 0-5.4-2.4-5.4-5.4v-32.4a5.4 5.4 0 1 1 10.8 0v32.4c0 3-2.4 5.4-5.4 5.4z" style="fill:#fff"/>
  <path d="M202.8 379v43.2c3 0 5.4-2.4 5.4-5.4v-32.4c0-3-2.4-5.3-5.4-5.3z" style="fill:#ceeaf2"/>
  <path d="M94.6 268.6c-3 0-5.4-2.4-5.4-5.4V231a5.4 5.4 0 1 1 10.8 0v32.3c0 3-2.5 5.4-5.4 5.4z" style="fill:#fff"/>
  <path d="M94.6 225.5v43.1c3 0 5.4-2.4 5.4-5.4V231c0-3-2.5-5.4-5.4-5.4z" style="fill:#ceeaf2"/>
  <path d="M152.8 422.2c-3 0-5.4-2.4-5.4-5.4v-32.4a5.4 5.4 0 1 1 10.8 0v32.4c0 3-2.4 5.4-5.4 5.4z" style="fill:#fff"/>
  <path d="M152.8 379v43.2c3 0 5.4-2.4 5.4-5.4v-32.4c0-3-2.4-5.3-5.4-5.3z" style="fill:#ceeaf2"/>
  <path d="M211.2 208.1c0-3 2.4-5.4 5.4-5.4h32.3a5.4 5.4 0 1 1 0 10.8h-32.3c-3 0-5.4-2.4-5.4-5.4z" style="fill:#fff"/>
  <path d="M254.3 208.1h-43.1c0 3 2.4 5.4 5.4 5.4h32.3c3 0 5.4-2.4 5.4-5.4z" style="fill:#ceeaf2"/>
  <path d="M352.4 246.6c0-3 2.4-5.4 5.3-5.4h32.4a5.4 5.4 0 1 1 0 10.7h-32.4c-3 0-5.3-2.4-5.3-5.3z" style="fill:#fff"/>
  <path d="M395.5 246.6h-43.1c0 3 2.4 5.3 5.3 5.3h32.4c3 0 5.4-2.4 5.4-5.3z" style="fill:#ceeaf2"/>
  <path d="M211.2 368.7c0-3 2.4-5.4 5.4-5.4h32.3a5.4 5.4 0 1 1 0 10.8h-32.3c-3 0-5.4-2.4-5.4-5.4z" style="fill:#fff"/>
  <path d="M254.3 368.7h-43.1c0 3 2.4 5.4 5.4 5.4h32.3c3 0 5.4-2.4 5.4-5.4z" style="fill:#ceeaf2"/>
  <path d="M104.3 368.7c0-3 2.4-5.4 5.4-5.4H142a5.4 5.4 0 1 1 0 10.8h-32.3c-3 0-5.4-2.4-5.4-5.4z" style="fill:#fff"/>
  <path d="M147.4 368.7h-43.1c0 3 2.4 5.4 5.4 5.4H142c3 0 5.4-2.4 5.4-5.4z" style="fill:#ceeaf2"/>
  <path d="M104.3 276.1c0-3 2.4-5.4 5.4-5.4H142a5.4 5.4 0 1 1 0 10.8h-32.3c-3 0-5.4-2.4-5.4-5.4z" style="fill:#fff"/>
  <path d="M147.4 276.1h-43.1c0 3 2.4 5.4 5.4 5.4H142c3 0 5.4-2.4 5.4-5.4z" style="fill:#ceeaf2"/>
  <path d="M326 190.7a23.5 23.5 0 1 1-47.1 0v-23.8a23.5 23.5 0 0 1 47 0v23.8z" style="fill:#fff"/>
  <path d="M278.9 178.8v11.9a23.5 23.5 0 0 0 47 0v-11.9h-47z" style="fill:#ceeaf2"/>
  <path d="M325.8 193.3zm-8.2-44.4a23.6 23.6 0 0 0 0 0z" style="fill:#55a4ad"/>
  <path d="M325.2 161c.5 1.8.7 3.9.7 6v11.8V167c0-2-.2-4-.7-6z" style="fill:#e6f4f8"/>
  <path d="M326 178.8v11.9l-.2 2.6.1-2.6v-11.9z" style="fill:#bae0ec"/>
  <path d="M312 145.4h-9.6v33.4h23.5V167a23.7 23.7 0 0 0-14-21.5z" style="fill:#e6f4f8"/>
  <path d="M326 178.8h-23.6v35.4a23.5 23.5 0 0 0 23.5-23.5v-11.9z" style="fill:#bae0ec"/>
  <path d="M302.4 90.2a9.5 9.5 0 0 0-9.6 9.5v45.7H312V99.7c0-5.3-4.3-9.5-9.6-9.5z" style="fill:#3194b0"/>
  <path d="M302.4 90.2v55.2h9.5V99.7c0-5.3-4.2-9.5-9.5-9.5z" style="fill:#2b8199"/>
  <path d="M331.9 115.4h-59a5.4 5.4 0 0 1 0-10.7h59a5.4 5.4 0 0 1 0 10.7z" style="fill:#e46a5d"/>
  <circle cx="272.7" cy="110.1" r="9.2" style="fill:#e46a5d"/>
  <path d="M272.7 100.9v18.3a9.2 9.2 0 1 0 0-18.3z" style="fill:#d45446"/>
  <path d="M302.4 115.4h-9.6v13.3h9.6z" style="fill:#1c6f8d"/>
  <path d="M312 115.4h-9.6v13.3h9.6z" style="fill:#19617a"/>
  <path d="M312 115.4h-19.2 9.6z" style="fill:#85504a"/>
  <circle cx="302.4" cy="110.1" r="9.2" style="fill:#e46a5d"/>
  <path d="M302.4 100.9v18.3a9.2 9.2 0 1 0 0-18.3z" style="fill:#d45446"/>
  <circle cx="332" cy="110.1" r="9.2" style="fill:#e46a5d"/>
  <path d="M332 100.9v18.3a9.2 9.2 0 1 0 0-18.3z" style="fill:#d45446"/>
  <path d="M392.7 307.8a18.8 18.8 0 1 1-37.6 0c0-10.4 18.8-47 18.8-47s18.8 36.6 18.8 47z" style="fill:#3194b0"/>
  <path d="M374 260.7v65.8c10.3 0 18.7-8.4 18.7-18.7 0-10.4-18.8-47-18.8-47z" style="fill:#2b8199"/>
  <path d="M364.6 298.9a9.2 9.2 0 1 0 0 18.5 9.2 9.2 0 0 0 0-18.5zm14 17.3a4.8 4.8 0 1 0 0 9.5 4.8 4.8 0 0 0 0-9.5z" style="fill:#ceeaf2"/>
</svg>
